<svg width="64" height="19" viewBox="0 0 64 19" fill="none" xmlns="http://www.w3.org/2000/svg">
<path d="M17.126 0.499999V18H14.251V5.525L8.92598 14.325H8.57598L3.25098 5.5V18H0.375977V0.499999H3.47598L8.75098 9.25L14.051 0.499999H17.126ZM23.4902 15.25H31.2402V18H20.6152V0.499999H31.1152V3.25H23.4902V7.8H30.4902V10.525H23.4902V15.25ZM44.3721 0.499999H47.2471V18H44.9971L36.7471 6.125V18H33.8721V0.499999H36.1221L44.3721 12.375V0.499999ZM61.9672 16.675C60.7339 17.775 59.1422 18.325 57.1922 18.325C55.2422 18.325 53.6505 17.775 52.4172 16.675C51.1839 15.5583 50.5672 14.0667 50.5672 12.2V0.499999H53.4422V12.025C53.4422 13.0917 53.7505 13.9417 54.3672 14.575C55.0005 15.2083 55.9422 15.525 57.1922 15.525C58.4422 15.525 59.3755 15.2083 59.9922 14.575C60.6255 13.9417 60.9422 13.0917 60.9422 12.025V0.499999H63.8172V12.2C63.8172 14.0667 63.2005 15.5583 61.9672 16.675Z" fill="#252525"/>
</svg>
