<svg width="64" height="19" fill="none" xmlns="http://www.w3.org/2000/svg"><path d="M17.126.5V18h-2.875V5.525l-5.325 8.8h-.35L3.251 5.5V18H.376V.5h3.1l5.275 8.75 5.3-8.75h3.075Zm6.364 14.75h7.75V18H20.615V.5h10.5v2.75H23.49V7.8h7v2.725h-7v4.725ZM44.372.5h2.875V18h-2.25l-8.25-11.875V18h-2.875V.5h2.25l8.25 11.875V.5Zm17.595 16.175c-1.233 1.1-2.825 1.65-4.775 1.65-1.95 0-3.541-.55-4.775-1.65-1.233-1.117-1.85-2.608-1.85-4.475V.5h2.875v11.525c0 1.067.309 1.917.925 2.55.634.633 1.575.95 2.825.95 1.25 0 2.184-.317 2.8-.95.634-.633.95-1.483.95-2.55V.5h2.875v11.7c0 1.867-.617 3.358-1.85 4.475Z" fill="#252525"/></svg>